<?xml version="1.0" encoding="UTF-8"?>
<svg xmlns="http://www.w3.org/2000/svg" xmlns:xlink="http://www.w3.org/1999/xlink" width="50px" height="50px" viewBox="0 0 50 50" version="1.1">
<g id="surface1">
<path style=" stroke:none;fill-rule:nonzero;fill:rgb(58.431373%,52.156863%,42.352941%);fill-opacity:1;" d="M 5 25 C 5 13.953125 13.953125 5 25 5 C 36.046875 5 45 13.953125 45 25 C 45 36.046875 36.046875 45 25 45 C 13.953125 45 5 36.046875 5 25 Z M 5 25 "/>
<path style=" stroke:none;fill-rule:nonzero;fill:rgb(100%,100%,100%);fill-opacity:1;" d="M 15.21875 32.0625 C 15.308594 32.0625 15.398438 32.015625 15.484375 31.925781 L 15.5625 31.984375 C 15.550781 31.996094 15.539062 32.011719 15.519531 32.03125 C 15.5 32.050781 15.457031 32.078125 15.390625 32.109375 C 15.320312 32.144531 15.246094 32.160156 15.164062 32.160156 C 14.769531 32.160156 14.574219 32 14.574219 31.6875 C 14.574219 31.589844 14.585938 31.445312 14.609375 31.253906 C 14.441406 31.304688 14.289062 31.328125 14.15625 31.328125 C 13.921875 31.328125 13.683594 31.261719 13.449219 31.128906 C 13.3125 31.347656 13.183594 31.53125 13.0625 31.683594 C 12.945312 31.839844 12.804688 31.988281 12.644531 32.132812 C 12.320312 32.429688 11.921875 32.578125 11.460938 32.578125 C 10.996094 32.578125 10.628906 32.441406 10.355469 32.167969 C 10.109375 31.917969 9.988281 31.617188 9.988281 31.257812 C 9.988281 30.898438 10.113281 30.582031 10.363281 30.304688 C 10.613281 30.023438 10.9375 29.886719 11.335938 29.886719 C 11.734375 29.886719 12.035156 29.992188 12.246094 30.210938 C 12.292969 30.269531 12.328125 30.3125 12.351562 30.34375 C 12.539062 30.417969 12.757812 30.539062 13 30.710938 C 13.183594 30.847656 13.320312 30.941406 13.40625 30.992188 C 13.457031 30.910156 13.523438 30.796875 13.609375 30.652344 C 13.695312 30.511719 13.761719 30.402344 13.808594 30.328125 C 13.855469 30.253906 13.921875 30.148438 14.015625 30.011719 C 14.105469 29.875 14.179688 29.773438 14.238281 29.703125 C 14.296875 29.632812 14.375 29.546875 14.472656 29.441406 C 14.566406 29.335938 14.65625 29.257812 14.738281 29.207031 C 14.980469 29.046875 15.183594 28.953125 15.351562 28.929688 C 15.441406 28.914062 15.519531 28.910156 15.582031 28.910156 C 15.644531 28.910156 15.714844 28.910156 15.792969 28.910156 C 15.871094 28.914062 15.980469 28.933594 16.121094 28.96875 L 16.09375 29.058594 C 16.011719 29.039062 15.921875 29.019531 15.824219 29.011719 C 15.472656 30.285156 15.269531 31.300781 15.21875 32.0625 M 12.519531 30.90625 C 12.519531 31.144531 12.445312 31.359375 12.292969 31.542969 C 12.144531 31.726562 11.945312 31.820312 11.691406 31.820312 C 11.523438 31.820312 11.390625 31.773438 11.285156 31.683594 C 11.183594 31.59375 11.128906 31.5 11.128906 31.402344 C 11.128906 31.304688 11.144531 31.222656 11.175781 31.160156 C 11.210938 31.097656 11.246094 31.050781 11.285156 31.015625 C 11.328125 30.984375 11.371094 30.960938 11.421875 30.941406 C 11.488281 30.90625 11.539062 30.890625 11.578125 30.890625 L 11.589844 30.988281 C 11.5 30.988281 11.421875 31.027344 11.347656 31.105469 C 11.273438 31.183594 11.234375 31.269531 11.234375 31.367188 C 11.234375 31.464844 11.277344 31.546875 11.359375 31.617188 C 11.441406 31.6875 11.550781 31.722656 11.691406 31.722656 C 11.914062 31.722656 12.09375 31.640625 12.222656 31.480469 C 12.355469 31.316406 12.417969 31.136719 12.417969 30.941406 C 12.417969 30.742188 12.375 30.570312 12.285156 30.425781 C 12.09375 30.355469 11.902344 30.324219 11.710938 30.324219 C 11.34375 30.324219 11.085938 30.480469 10.933594 30.792969 L 10.835938 30.765625 C 10.871094 30.683594 10.933594 30.597656 11.019531 30.503906 C 11.183594 30.316406 11.414062 30.226562 11.710938 30.226562 C 11.871094 30.226562 12.027344 30.246094 12.179688 30.289062 L 12.171875 30.273438 C 11.976562 30.078125 11.699219 29.984375 11.332031 29.984375 C 10.96875 29.984375 10.671875 30.113281 10.441406 30.371094 C 10.210938 30.628906 10.09375 30.925781 10.09375 31.261719 C 10.09375 31.597656 10.207031 31.878906 10.433594 32.101562 C 10.6875 32.351562 11.039062 32.480469 11.496094 32.480469 C 11.910156 32.480469 12.273438 32.335938 12.582031 32.046875 C 12.738281 31.90625 12.871094 31.765625 12.988281 31.613281 C 13.101562 31.464844 13.226562 31.285156 13.359375 31.074219 C 13.238281 31.003906 13.09375 30.90625 12.921875 30.78125 C 12.753906 30.65625 12.589844 30.558594 12.429688 30.484375 C 12.488281 30.617188 12.519531 30.761719 12.519531 30.90625 M 13.5 31.046875 C 13.726562 31.167969 13.933594 31.230469 14.121094 31.230469 C 14.3125 31.230469 14.480469 31.203125 14.625 31.148438 C 14.710938 30.601562 14.871094 29.921875 15.101562 29.109375 C 14.820312 29.230469 14.5625 29.449219 14.324219 29.765625 C 14.152344 29.992188 13.945312 30.304688 13.703125 30.710938 Z M 13.5 31.046875 "/>
<path style=" stroke:none;fill-rule:nonzero;fill:rgb(100%,100%,100%);fill-opacity:1;" d="M 18.148438 31.808594 C 18.234375 31.808594 18.324219 31.765625 18.414062 31.671875 L 18.492188 31.730469 C 18.46875 31.777344 18.414062 31.816406 18.328125 31.851562 C 18.246094 31.886719 18.152344 31.90625 18.050781 31.90625 C 17.730469 31.90625 17.570312 31.773438 17.570312 31.507812 C 17.570312 31.394531 17.601562 31.191406 17.664062 30.902344 C 17.726562 30.609375 17.757812 30.417969 17.757812 30.328125 C 17.757812 30.1875 17.6875 30.117188 17.542969 30.117188 C 17.425781 30.117188 17.316406 30.1875 17.207031 30.328125 C 17.101562 30.46875 17.011719 30.65625 16.941406 30.902344 L 16.761719 31.808594 C 16.871094 31.800781 16.960938 31.753906 17.03125 31.671875 L 17.109375 31.730469 C 17.003906 31.847656 16.871094 31.90625 16.714844 31.90625 C 16.554688 31.90625 16.429688 31.867188 16.339844 31.792969 C 16.25 31.71875 16.207031 31.621094 16.207031 31.503906 C 16.207031 31.457031 16.234375 31.28125 16.289062 30.96875 L 16.464844 30.070312 C 16.359375 30.078125 16.269531 30.125 16.199219 30.207031 L 16.121094 30.148438 C 16.226562 30.03125 16.359375 29.972656 16.519531 29.972656 C 16.679688 29.972656 16.804688 30.011719 16.894531 30.085938 C 16.980469 30.160156 17.023438 30.265625 17.023438 30.402344 L 17.023438 30.429688 C 17.167969 30.125 17.394531 29.972656 17.699219 29.972656 C 17.910156 29.972656 18.070312 30.027344 18.1875 30.136719 C 18.304688 30.246094 18.359375 30.394531 18.359375 30.585938 C 18.359375 30.683594 18.328125 30.878906 18.261719 31.164062 C 18.195312 31.453125 18.15625 31.667969 18.148438 31.808594 Z M 18.148438 31.808594 "/>
<path style=" stroke:none;fill-rule:nonzero;fill:rgb(100%,100%,100%);fill-opacity:1;" d="M 20.652344 31.90625 C 20.34375 31.90625 20.175781 31.78125 20.148438 31.53125 C 19.992188 31.78125 19.796875 31.90625 19.558594 31.90625 C 19.324219 31.90625 19.136719 31.839844 18.996094 31.710938 C 18.859375 31.578125 18.789062 31.394531 18.789062 31.160156 C 18.789062 30.789062 18.886719 30.5 19.085938 30.289062 C 19.28125 30.078125 19.539062 29.972656 19.851562 29.972656 C 20.109375 29.972656 20.277344 30.085938 20.363281 30.308594 C 20.378906 30.210938 20.398438 30.113281 20.421875 30.015625 C 20.683594 30.015625 20.875 30.007812 21.003906 29.988281 L 21.070312 29.972656 L 20.707031 31.808594 C 20.8125 31.800781 20.898438 31.753906 20.96875 31.671875 L 21.050781 31.730469 C 20.945312 31.847656 20.8125 31.90625 20.652344 31.90625 M 19.386719 31.40625 C 19.386719 31.550781 19.40625 31.652344 19.445312 31.710938 C 19.488281 31.765625 19.550781 31.792969 19.632812 31.792969 C 19.71875 31.792969 19.804688 31.753906 19.894531 31.667969 C 20.007812 31.558594 20.101562 31.417969 20.171875 31.25 C 20.183594 31.207031 20.203125 31.105469 20.234375 30.945312 C 20.265625 30.785156 20.289062 30.65625 20.308594 30.550781 C 20.300781 30.429688 20.261719 30.320312 20.199219 30.230469 C 20.136719 30.140625 20.058594 30.09375 19.960938 30.09375 C 19.789062 30.09375 19.648438 30.234375 19.542969 30.519531 C 19.4375 30.804688 19.386719 31.097656 19.386719 31.40625 Z M 19.386719 31.40625 "/>
<path style=" stroke:none;fill-rule:nonzero;fill:rgb(100%,100%,100%);fill-opacity:1;" d="M 22.359375 31.6875 C 22.359375 31.6875 22.347656 31.703125 22.324219 31.730469 C 22.300781 31.757812 22.25 31.792969 22.171875 31.839844 C 22.09375 31.882812 21.988281 31.90625 21.863281 31.90625 C 21.738281 31.90625 21.628906 31.867188 21.542969 31.792969 C 21.453125 31.71875 21.410156 31.613281 21.410156 31.480469 C 21.410156 31.453125 21.414062 31.410156 21.417969 31.351562 L 21.761719 29.605469 C 21.828125 29.285156 21.914062 29.054688 22.023438 28.917969 C 22.136719 28.78125 22.28125 28.714844 22.464844 28.714844 C 22.59375 28.714844 22.695312 28.757812 22.78125 28.847656 C 22.863281 28.933594 22.902344 29.066406 22.902344 29.246094 C 22.902344 29.421875 22.828125 29.675781 22.679688 30.007812 C 22.53125 30.335938 22.453125 30.578125 22.453125 30.730469 L 22.359375 30.730469 C 22.359375 30.558594 22.433594 30.3125 22.582031 29.996094 C 22.730469 29.675781 22.804688 29.421875 22.804688 29.230469 C 22.804688 29.113281 22.773438 29.011719 22.714844 28.929688 C 22.660156 28.84375 22.585938 28.800781 22.503906 28.800781 C 22.5 28.886719 22.4375 29.265625 22.320312 29.9375 C 22.203125 30.609375 22.085938 31.234375 21.96875 31.808594 C 22.066406 31.808594 22.160156 31.761719 22.242188 31.667969 C 22.328125 31.574219 22.386719 31.480469 22.421875 31.386719 L 22.480469 31.242188 L 22.578125 31.28125 C 22.566406 31.324219 22.539062 31.390625 22.496094 31.476562 C 22.449219 31.5625 22.40625 31.632812 22.359375 31.6875 Z M 22.359375 31.6875 "/>
<path style=" stroke:none;fill-rule:nonzero;fill:rgb(100%,100%,100%);fill-opacity:1;" d="M 23.238281 30.070312 C 23.152344 30.070312 23.0625 30.117188 22.972656 30.207031 L 22.894531 30.148438 C 22.917969 30.101562 22.972656 30.0625 23.058594 30.027344 C 23.140625 29.992188 23.234375 29.972656 23.335938 29.972656 C 23.65625 29.972656 23.816406 30.105469 23.816406 30.371094 C 23.816406 30.484375 23.785156 30.671875 23.71875 30.925781 C 23.652344 31.183594 23.617188 31.359375 23.617188 31.449219 C 23.617188 31.605469 23.6875 31.683594 23.828125 31.683594 C 23.945312 31.683594 24.058594 31.609375 24.167969 31.464844 C 24.28125 31.320312 24.371094 31.121094 24.441406 30.875 L 24.617188 30.015625 C 24.875 30.015625 25.066406 30.007812 25.1875 29.988281 L 25.253906 29.972656 L 24.921875 31.691406 C 24.859375 32.027344 24.710938 32.285156 24.480469 32.476562 C 24.25 32.664062 23.953125 32.757812 23.585938 32.757812 C 23.363281 32.757812 23.191406 32.722656 23.070312 32.652344 C 22.949219 32.582031 22.886719 32.492188 22.886719 32.378906 C 22.886719 32.269531 22.925781 32.179688 23 32.113281 C 23.074219 32.046875 23.175781 32.011719 23.3125 32.011719 C 23.449219 32.011719 23.574219 32.035156 23.691406 32.074219 C 23.808594 32.113281 23.890625 32.136719 23.945312 32.144531 L 23.933594 32.230469 C 23.875 32.226562 23.789062 32.203125 23.675781 32.164062 C 23.5625 32.125 23.449219 32.105469 23.339844 32.105469 C 23.230469 32.105469 23.144531 32.128906 23.085938 32.171875 C 23.027344 32.21875 23 32.285156 23 32.371094 C 23 32.457031 23.050781 32.527344 23.152344 32.578125 C 23.253906 32.632812 23.382812 32.660156 23.53125 32.660156 C 23.898438 32.660156 24.125 32.457031 24.207031 32.050781 L 24.339844 31.382812 C 24.191406 31.679688 23.96875 31.828125 23.667969 31.828125 C 23.464844 31.828125 23.308594 31.773438 23.195312 31.667969 C 23.085938 31.5625 23.03125 31.410156 23.03125 31.214844 C 23.03125 31.117188 23.0625 30.9375 23.128906 30.675781 C 23.195312 30.414062 23.230469 30.210938 23.238281 30.070312 Z M 23.238281 30.070312 "/>
<path style=" stroke:none;fill-rule:nonzero;fill:rgb(100%,100%,100%);fill-opacity:1;" d="M 25.835938 30.015625 L 25.976562 29.296875 C 26.238281 29.296875 26.433594 29.289062 26.558594 29.269531 L 26.628906 29.253906 C 26.578125 29.480469 26.523438 29.734375 26.464844 30.015625 L 27.117188 30.015625 L 27.109375 30.105469 L 26.449219 30.105469 C 26.273438 30.941406 26.183594 31.441406 26.183594 31.613281 C 26.183594 31.71875 26.242188 31.769531 26.363281 31.769531 C 26.484375 31.769531 26.59375 31.699219 26.691406 31.5625 C 26.789062 31.421875 26.859375 31.273438 26.902344 31.109375 L 26.996094 31.140625 C 26.867188 31.652344 26.597656 31.90625 26.1875 31.90625 C 26.019531 31.90625 25.878906 31.863281 25.765625 31.777344 C 25.652344 31.691406 25.597656 31.570312 25.597656 31.417969 C 25.597656 31.265625 25.671875 30.828125 25.8125 30.105469 L 25.554688 30.105469 L 25.566406 30.015625 Z M 25.835938 30.015625 "/>
<path style=" stroke:none;fill-rule:nonzero;fill:rgb(100%,100%,100%);fill-opacity:1;" d="M 28.234375 31.730469 C 28.128906 31.847656 27.996094 31.90625 27.835938 31.90625 C 27.679688 31.90625 27.554688 31.867188 27.464844 31.792969 C 27.375 31.71875 27.332031 31.621094 27.332031 31.503906 C 27.332031 31.460938 27.359375 31.285156 27.414062 30.972656 L 27.589844 30.105469 L 27.367188 30.105469 L 27.378906 30.015625 L 27.605469 30.015625 C 27.867188 30.015625 28.058594 30.007812 28.179688 29.988281 L 28.253906 29.972656 L 27.890625 31.808594 C 27.996094 31.800781 28.082031 31.753906 28.15625 31.671875 L 28.234375 31.730469 M 27.769531 29.507812 C 27.769531 29.507812 27.75 29.488281 27.714844 29.457031 C 27.675781 29.421875 27.65625 29.355469 27.65625 29.257812 C 27.65625 29.160156 27.695312 29.078125 27.769531 29.007812 C 27.84375 28.9375 27.933594 28.90625 28.039062 28.90625 C 28.144531 28.90625 28.234375 28.9375 28.308594 29.007812 C 28.386719 29.078125 28.421875 29.160156 28.421875 29.257812 C 28.421875 29.355469 28.386719 29.4375 28.308594 29.507812 C 28.234375 29.574219 28.144531 29.609375 28.039062 29.609375 C 27.933594 29.609375 27.84375 29.574219 27.769531 29.507812 Z M 27.769531 29.507812 "/>
<path style=" stroke:none;fill-rule:nonzero;fill:rgb(100%,100%,100%);fill-opacity:1;" d="M 29.855469 30.847656 C 29.855469 30.847656 29.835938 30.832031 29.800781 30.796875 C 29.761719 30.761719 29.746094 30.695312 29.746094 30.601562 C 29.746094 30.503906 29.78125 30.417969 29.855469 30.347656 C 29.929688 30.28125 30.019531 30.246094 30.125 30.246094 C 30.15625 30.246094 30.195312 30.25 30.246094 30.265625 C 30.179688 30.152344 30.054688 30.09375 29.871094 30.09375 C 29.6875 30.09375 29.527344 30.203125 29.386719 30.414062 C 29.246094 30.628906 29.171875 30.945312 29.171875 31.367188 C 29.171875 31.511719 29.210938 31.621094 29.28125 31.691406 C 29.355469 31.761719 29.445312 31.792969 29.554688 31.792969 C 29.664062 31.792969 29.761719 31.773438 29.851562 31.734375 C 29.941406 31.699219 30.015625 31.652344 30.066406 31.597656 C 30.121094 31.542969 30.164062 31.488281 30.203125 31.429688 C 30.273438 31.324219 30.308594 31.253906 30.308594 31.226562 L 30.40625 31.265625 C 30.394531 31.316406 30.363281 31.386719 30.308594 31.472656 C 30.257812 31.558594 30.199219 31.628906 30.136719 31.683594 C 30.070312 31.738281 29.976562 31.789062 29.855469 31.835938 C 29.730469 31.882812 29.59375 31.90625 29.441406 31.90625 C 29.15625 31.90625 28.941406 31.84375 28.796875 31.71875 C 28.648438 31.59375 28.578125 31.421875 28.578125 31.207031 C 28.578125 30.820312 28.683594 30.519531 28.890625 30.300781 C 29.101562 30.082031 29.386719 29.972656 29.746094 29.972656 C 29.988281 29.972656 30.175781 30.03125 30.304688 30.144531 C 30.433594 30.257812 30.5 30.40625 30.5 30.589844 C 30.5 30.707031 30.460938 30.796875 30.386719 30.855469 C 30.308594 30.917969 30.222656 30.949219 30.121094 30.949219 C 30.015625 30.949219 29.929688 30.914062 29.855469 30.847656 Z M 29.855469 30.847656 "/>
<path style=" stroke:none;fill-rule:nonzero;fill:rgb(100%,100%,100%);fill-opacity:1;" d="M 32.632812 31.90625 C 32.324219 31.90625 32.15625 31.78125 32.125 31.53125 C 31.972656 31.78125 31.777344 31.90625 31.539062 31.90625 C 31.304688 31.90625 31.117188 31.839844 30.976562 31.710938 C 30.839844 31.578125 30.769531 31.394531 30.769531 31.160156 C 30.769531 30.789062 30.867188 30.5 31.066406 30.289062 C 31.261719 30.078125 31.515625 29.972656 31.832031 29.972656 C 32.085938 29.972656 32.257812 30.085938 32.34375 30.308594 C 32.359375 30.210938 32.378906 30.113281 32.402344 30.015625 C 32.660156 30.015625 32.855469 30.007812 32.980469 29.988281 L 33.050781 29.972656 L 32.6875 31.808594 C 32.792969 31.800781 32.878906 31.753906 32.949219 31.671875 L 33.03125 31.730469 C 32.925781 31.847656 32.792969 31.90625 32.632812 31.90625 M 31.367188 31.40625 C 31.367188 31.550781 31.386719 31.652344 31.425781 31.710938 C 31.46875 31.765625 31.53125 31.792969 31.613281 31.792969 C 31.699219 31.792969 31.785156 31.753906 31.871094 31.667969 C 31.988281 31.558594 32.082031 31.417969 32.152344 31.25 C 32.164062 31.207031 32.183594 31.105469 32.214844 30.945312 C 32.242188 30.785156 32.269531 30.65625 32.289062 30.550781 C 32.28125 30.429688 32.242188 30.320312 32.179688 30.230469 C 32.117188 30.140625 32.035156 30.09375 31.941406 30.09375 C 31.769531 30.09375 31.628906 30.234375 31.523438 30.519531 C 31.417969 30.804688 31.367188 31.097656 31.367188 31.40625 Z M 31.367188 31.40625 "/>
<path style=" stroke:none;fill-rule:nonzero;fill:rgb(100%,100%,100%);fill-opacity:1;" d="M 34.339844 31.6875 C 34.339844 31.6875 34.328125 31.703125 34.304688 31.730469 C 34.28125 31.757812 34.230469 31.792969 34.152344 31.839844 C 34.074219 31.882812 33.96875 31.90625 33.84375 31.90625 C 33.714844 31.90625 33.609375 31.867188 33.519531 31.792969 C 33.433594 31.71875 33.390625 31.613281 33.390625 31.480469 C 33.390625 31.453125 33.390625 31.410156 33.398438 31.351562 L 33.742188 29.605469 C 33.804688 29.285156 33.894531 29.054688 34.003906 28.917969 C 34.117188 28.78125 34.261719 28.714844 34.445312 28.714844 C 34.570312 28.714844 34.675781 28.757812 34.757812 28.847656 C 34.84375 28.933594 34.882812 29.066406 34.882812 29.246094 C 34.882812 29.421875 34.808594 29.675781 34.660156 30.007812 C 34.507812 30.335938 34.433594 30.578125 34.433594 30.730469 L 34.339844 30.730469 C 34.339844 30.558594 34.414062 30.3125 34.5625 29.996094 C 34.710938 29.675781 34.785156 29.421875 34.785156 29.230469 C 34.785156 29.113281 34.753906 29.011719 34.695312 28.929688 C 34.636719 28.84375 34.566406 28.800781 34.480469 28.800781 C 34.480469 28.886719 34.417969 29.265625 34.300781 29.9375 C 34.183594 30.609375 34.066406 31.234375 33.949219 31.808594 C 34.046875 31.808594 34.140625 31.761719 34.222656 31.667969 C 34.308594 31.574219 34.367188 31.480469 34.402344 31.386719 L 34.460938 31.242188 L 34.554688 31.28125 C 34.546875 31.324219 34.519531 31.390625 34.472656 31.476562 C 34.429688 31.5625 34.386719 31.632812 34.339844 31.6875 Z M 34.339844 31.6875 "/>
<path style=" stroke:none;fill-rule:nonzero;fill:rgb(100%,100%,100%);fill-opacity:1;" d="M 37.976562 29.007812 C 37.671875 29.007812 37.421875 29.097656 37.226562 29.285156 C 37.035156 29.46875 36.9375 29.707031 36.9375 29.996094 L 36.824219 29.996094 C 36.824219 29.675781 36.933594 29.414062 37.148438 29.210938 C 37.363281 29.007812 37.640625 28.90625 37.976562 28.90625 C 38.101562 28.90625 38.21875 28.917969 38.332031 28.941406 C 38.445312 28.96875 38.527344 28.996094 38.582031 29.019531 C 38.636719 29.046875 38.722656 29.089844 38.839844 29.148438 C 38.957031 29.210938 39.054688 29.253906 39.128906 29.285156 C 39.203125 29.316406 39.320312 29.347656 39.480469 29.382812 C 39.640625 29.417969 39.816406 29.433594 40.011719 29.433594 L 40.011719 29.535156 C 39.898438 29.535156 39.792969 29.53125 39.699219 29.519531 C 39.671875 29.546875 39.636719 29.585938 39.59375 29.640625 C 39.550781 29.695312 39.480469 29.824219 39.378906 30.027344 C 39.273438 30.234375 39.175781 30.476562 39.082031 30.753906 L 39.640625 30.753906 L 39.628906 30.84375 L 39.054688 30.84375 C 38.996094 31.019531 38.941406 31.203125 38.894531 31.390625 C 38.847656 31.574219 38.785156 31.757812 38.710938 31.933594 C 38.636719 32.109375 38.539062 32.285156 38.414062 32.457031 C 38.160156 32.800781 37.769531 32.976562 37.25 32.976562 C 36.835938 32.976562 36.519531 32.851562 36.292969 32.609375 C 36.066406 32.363281 35.953125 32.089844 35.953125 31.789062 C 35.953125 31.75 35.957031 31.710938 35.960938 31.667969 L 36.082031 31.667969 C 36.078125 31.707031 36.074219 31.746094 36.074219 31.78125 C 36.074219 32.074219 36.179688 32.332031 36.390625 32.546875 C 36.597656 32.765625 36.886719 32.871094 37.25 32.871094 C 37.578125 32.871094 37.835938 32.648438 38.015625 32.203125 C 38.121094 31.9375 38.207031 31.664062 38.277344 31.382812 C 38.34375 31.101562 38.390625 30.921875 38.414062 30.84375 L 37.835938 30.84375 L 37.84375 30.753906 L 38.4375 30.753906 C 38.558594 30.324219 38.679688 30.007812 38.800781 29.800781 C 38.921875 29.59375 39.058594 29.472656 39.21875 29.429688 C 39.09375 29.390625 38.964844 29.332031 38.824219 29.257812 C 38.6875 29.183594 38.589844 29.136719 38.539062 29.113281 C 38.371094 29.042969 38.183594 29.007812 37.976562 29.007812 Z M 37.976562 29.007812 "/>
<path style=" stroke:none;fill-rule:nonzero;fill:rgb(100%,100%,100%);fill-opacity:1;" d="M 25.59375 24.632812 C 25.8125 24.632812 26.023438 24.523438 26.226562 24.304688 L 26.417969 24.445312 C 26.394531 24.476562 26.359375 24.515625 26.316406 24.5625 C 26.273438 24.609375 26.171875 24.671875 26.003906 24.75 C 25.839844 24.828125 25.660156 24.867188 25.464844 24.867188 C 24.515625 24.867188 24.039062 24.488281 24.039062 23.730469 C 24.039062 23.496094 24.070312 23.152344 24.128906 22.691406 C 23.722656 22.808594 23.355469 22.867188 23.035156 22.867188 C 22.464844 22.867188 21.898438 22.707031 21.328125 22.386719 C 20.996094 22.910156 20.6875 23.355469 20.398438 23.726562 C 20.109375 24.097656 19.773438 24.457031 19.394531 24.808594 C 18.605469 25.519531 17.652344 25.875 16.535156 25.875 C 15.421875 25.875 14.53125 25.546875 13.871094 24.890625 C 13.285156 24.289062 12.992188 23.558594 12.992188 22.695312 C 12.992188 21.832031 13.292969 21.066406 13.894531 20.394531 C 14.496094 19.726562 15.277344 19.390625 16.238281 19.390625 C 17.195312 19.390625 17.925781 19.652344 18.425781 20.171875 C 18.542969 20.3125 18.628906 20.417969 18.679688 20.488281 C 19.140625 20.667969 19.660156 20.964844 20.246094 21.378906 C 20.6875 21.707031 21.015625 21.933594 21.226562 22.058594 C 21.34375 21.855469 21.507812 21.582031 21.714844 21.238281 C 21.925781 20.894531 22.082031 20.632812 22.195312 20.453125 C 22.304688 20.273438 22.46875 20.019531 22.691406 19.695312 C 22.910156 19.367188 23.089844 19.117188 23.230469 18.949219 C 23.371094 18.78125 23.558594 18.570312 23.789062 18.320312 C 24.023438 18.066406 24.238281 17.875 24.433594 17.75 C 25.019531 17.367188 25.511719 17.144531 25.910156 17.082031 C 26.128906 17.050781 26.316406 17.035156 26.46875 17.035156 C 26.621094 17.035156 26.792969 17.039062 26.980469 17.042969 C 27.164062 17.046875 27.429688 17.089844 27.769531 17.175781 L 27.703125 17.398438 C 27.5 17.34375 27.285156 17.304688 27.054688 17.28125 C 26.207031 20.347656 25.71875 22.800781 25.59375 24.632812 M 19.089844 21.847656 C 19.089844 22.425781 18.90625 22.9375 18.546875 23.378906 C 18.1875 23.824219 17.699219 24.046875 17.089844 24.046875 C 16.691406 24.046875 16.367188 23.9375 16.117188 23.71875 C 15.867188 23.5 15.742188 23.273438 15.742188 23.042969 C 15.742188 22.808594 15.777344 22.613281 15.855469 22.460938 C 15.929688 22.308594 16.019531 22.195312 16.117188 22.117188 C 16.214844 22.039062 16.320312 21.976562 16.441406 21.929688 C 16.601562 21.851562 16.730469 21.8125 16.824219 21.8125 L 16.847656 22.046875 C 16.636719 22.046875 16.441406 22.140625 16.261719 22.328125 C 16.085938 22.515625 15.996094 22.726562 15.996094 22.960938 C 15.996094 23.195312 16.09375 23.394531 16.292969 23.5625 C 16.492188 23.730469 16.757812 23.8125 17.089844 23.8125 C 17.632812 23.8125 18.0625 23.617188 18.375 23.230469 C 18.6875 22.839844 18.847656 22.40625 18.847656 21.929688 C 18.847656 21.453125 18.738281 21.039062 18.527344 20.6875 C 18.0625 20.523438 17.597656 20.441406 17.140625 20.441406 C 16.257812 20.441406 15.632812 20.820312 15.269531 21.578125 L 15.027344 21.507812 C 15.121094 21.3125 15.269531 21.101562 15.472656 20.875 C 15.871094 20.429688 16.429688 20.207031 17.140625 20.207031 C 17.523438 20.207031 17.898438 20.257812 18.273438 20.359375 L 18.246094 20.324219 C 17.78125 19.859375 17.109375 19.625 16.230469 19.625 C 15.351562 19.625 14.636719 19.9375 14.078125 20.558594 C 13.523438 21.183594 13.246094 21.898438 13.246094 22.707031 C 13.246094 23.515625 13.515625 24.1875 14.058594 24.726562 C 14.671875 25.335938 15.523438 25.640625 16.617188 25.640625 C 17.621094 25.640625 18.492188 25.292969 19.242188 24.597656 C 19.613281 24.261719 19.9375 23.914062 20.214844 23.554688 C 20.488281 23.199219 20.789062 22.765625 21.113281 22.257812 C 20.824219 22.085938 20.472656 21.847656 20.0625 21.550781 C 19.648438 21.25 19.253906 21.007812 18.871094 20.828125 C 19.015625 21.15625 19.089844 21.496094 19.089844 21.847656 M 21.457031 22.1875 C 22 22.484375 22.496094 22.632812 22.949219 22.632812 C 23.40625 22.632812 23.808594 22.566406 24.167969 22.433594 C 24.371094 21.113281 24.75 19.476562 25.3125 17.515625 C 24.632812 17.8125 24.007812 18.339844 23.441406 19.097656 C 23.023438 19.644531 22.523438 20.402344 21.9375 21.378906 Z M 21.457031 22.1875 "/>
<path style=" stroke:none;fill-rule:nonzero;fill:rgb(100%,100%,100%);fill-opacity:1;" d="M 32.109375 17.269531 C 31.371094 17.269531 30.769531 17.492188 30.300781 17.9375 C 29.835938 18.382812 29.601562 18.957031 29.601562 19.660156 L 29.332031 19.660156 C 29.332031 18.886719 29.59375 18.253906 30.109375 17.761719 C 30.628906 17.269531 31.292969 17.023438 32.109375 17.023438 C 32.40625 17.023438 32.691406 17.054688 32.960938 17.117188 C 33.234375 17.179688 33.433594 17.242188 33.566406 17.304688 C 33.699219 17.367188 33.90625 17.472656 34.191406 17.617188 C 34.472656 17.761719 34.703125 17.871094 34.882812 17.945312 C 35.0625 18.019531 35.34375 18.097656 35.730469 18.179688 C 36.117188 18.261719 36.542969 18.300781 37.007812 18.300781 L 37.007812 18.546875 C 36.738281 18.546875 36.488281 18.535156 36.257812 18.511719 C 36.191406 18.574219 36.105469 18.667969 36.003906 18.796875 C 35.902344 18.925781 35.726562 19.238281 35.480469 19.734375 C 35.234375 20.230469 34.996094 20.8125 34.769531 21.484375 L 36.117188 21.484375 L 36.09375 21.695312 L 34.703125 21.695312 C 34.5625 22.125 34.429688 22.5625 34.316406 23.011719 C 34.203125 23.460938 34.054688 23.898438 33.878906 24.324219 C 33.699219 24.75 33.460938 25.167969 33.164062 25.582031 C 32.546875 26.417969 31.609375 26.832031 30.351562 26.832031 C 29.359375 26.832031 28.589844 26.539062 28.046875 25.949219 C 27.503906 25.359375 27.234375 24.703125 27.234375 23.976562 C 27.234375 23.882812 27.238281 23.785156 27.246094 23.683594 L 27.539062 23.683594 C 27.53125 23.777344 27.527344 23.867188 27.527344 23.953125 C 27.527344 24.664062 27.777344 25.28125 28.285156 25.804688 C 28.789062 26.328125 29.476562 26.585938 30.351562 26.585938 C 31.148438 26.585938 31.765625 26.050781 32.199219 24.972656 C 32.453125 24.332031 32.664062 23.671875 32.828125 22.996094 C 32.992188 22.316406 33.105469 21.882812 33.164062 21.695312 L 31.765625 21.695312 L 31.789062 21.484375 L 33.214844 21.484375 C 33.511719 20.445312 33.804688 19.679688 34.09375 19.183594 C 34.382812 18.6875 34.71875 18.390625 35.097656 18.289062 C 34.800781 18.195312 34.488281 18.058594 34.152344 17.878906 C 33.816406 17.699219 33.585938 17.582031 33.457031 17.527344 C 33.058594 17.355469 32.609375 17.269531 32.109375 17.269531 Z M 32.109375 17.269531 "/>
</g>
</svg>
